<svg width="54" height="55" viewBox="0 0 54 55" fill="none" xmlns="http://www.w3.org/2000/svg">
<path fill-rule="evenodd" clip-rule="evenodd" d="M54 25.1294C48.7119 25.1294 43.4271 25.1294 38.0846 25.1294C37.592 22.9617 36.6695 21.0126 35.0739 19.4463C32.0325 16.4601 28.4009 15.3417 24.2678 16.4332C20.1461 17.5224 17.5045 20.2591 16.2893 24.3418C16.139 24.8457 16.0861 25.2009 15.392 25.196C10.3868 25.1611 5.38155 25.1765 0.375514 25.1741C0.24953 25.1741 0.122733 25.1473 0 25.1335C0.369824 13.8721 9.83894 0.959972 25.2569 0.0520747C42.0616 -0.937103 53.3888 12.3392 54 25.1294Z" fill="#FFBB00"/>
<path fill-rule="evenodd" clip-rule="evenodd" d="M0.0617752 29.6656C3.26583 29.6656 6.3813 29.6656 9.49676 29.6656C11.4467 29.6656 13.3974 29.6794 15.3465 29.6559C15.8626 29.6502 16.1316 29.7428 16.3129 30.3159C17.9052 35.3252 22.1008 38.4577 27.1191 38.4439C32.0902 38.4301 36.2533 35.2788 37.8781 30.3443C37.9683 30.0696 38.3512 29.6973 38.5999 29.6957C43.6043 29.6608 48.6087 29.6729 53.6139 29.6794C53.7041 29.6794 53.7952 29.7331 53.8821 29.7607C53.0523 42.6038 41.5308 54.161 27.3914 54.2569C11.6466 54.3634 0.904649 41.9324 0.0617752 29.6656ZM2.27422 31.6164C3.82748 42.0527 14.0476 53.0792 28.4724 52.2631C41.9307 51.5015 50.5968 40.4173 51.6283 31.6448C47.5984 31.6448 43.571 31.6448 39.5102 31.6448C39.3924 31.9057 39.2753 32.1707 39.1558 32.4348C36.9418 37.3417 33.0615 39.95 27.7791 40.3515C22.3089 40.7677 17.1802 37.5173 15.0376 32.4633C14.7466 31.7765 14.4044 31.5651 13.6819 31.5977C12.2538 31.6627 10.8216 31.6164 9.39191 31.6164C7.02341 31.6164 4.6541 31.6164 2.27422 31.6164Z" fill="#FFBB00"/>
<path fill-rule="evenodd" clip-rule="evenodd" d="M34.5887 27.3597C34.5733 31.5619 31.1351 34.9578 26.9224 34.9318C22.7234 34.9058 19.3381 31.457 19.3755 27.2419C19.4113 23.0844 22.8234 19.7137 26.9923 19.7186C31.1969 19.7226 34.6033 23.1502 34.5887 27.3597Z" fill="#FFBB00"/>
</svg>
